<svg width="60" height="60" viewBox="0 0 60 60" fill="none" xmlns="http://www.w3.org/2000/svg">
<path d="M32.0418 39.625L39.6252 32.0417C40.1599 31.507 40.4272 30.8264 40.4272 30C40.4272 29.1736 40.1599 28.4931 39.6252 27.9583L31.9689 20.3021C31.4342 19.7674 30.7663 19.5117 29.9652 19.535C29.1621 19.5603 28.4932 19.8403 27.9585 20.375C27.4238 20.9097 27.1564 21.5903 27.1564 22.4167C27.1564 23.2431 27.4238 23.9236 27.9585 24.4583L30.5835 27.0833H21.1772C20.3509 27.0833 19.6703 27.3624 19.1356 27.9204C18.6009 28.4804 18.3335 29.1736 18.3335 30C18.3335 30.8264 18.6135 31.5186 19.1735 32.0767C19.7316 32.6367 20.4238 32.9167 21.2502 32.9167H30.5835L27.8856 35.6146C27.3509 36.1493 27.0952 36.8182 27.1185 37.6213C27.1438 38.4224 27.4238 39.0903 27.9585 39.625C28.4932 40.1597 29.1738 40.4271 30.0002 40.4271C30.8265 40.4271 31.5071 40.1597 32.0418 39.625ZM30.0002 59.1667C25.9654 59.1667 22.1738 58.4006 18.6252 56.8683C15.0766 55.3381 11.9897 53.2604 9.36475 50.6354C6.73975 48.0104 4.66211 44.9236 3.13183 41.375C1.59961 37.8264 0.833496 34.0347 0.833496 30C0.833496 25.9653 1.59961 22.1736 3.13183 18.625C4.66211 15.0764 6.73975 11.9896 9.36475 9.36459C11.9897 6.73959 15.0766 4.66098 18.6252 3.12876C22.1738 1.59848 25.9654 0.833344 30.0002 0.833344C34.0349 0.833344 37.8265 1.59848 41.3752 3.12876C44.9238 4.66098 48.0106 6.73959 50.6356 9.36459C53.2606 11.9896 55.3382 15.0764 56.8685 18.625C58.4007 22.1736 59.1668 25.9653 59.1668 30C59.1668 34.0347 58.4007 37.8264 56.8685 41.375C55.3382 44.9236 53.2606 48.0104 50.6356 50.6354C48.0106 53.2604 44.9238 55.3381 41.3752 56.8683C37.8265 58.4006 34.0349 59.1667 30.0002 59.1667Z" fill="#002378"/>
</svg>
