<svg width="21" height="12" viewBox="0 0 21 12" fill="none" xmlns="http://www.w3.org/2000/svg">
<path d="M18.6655 11.2593L10.7993 3.39326L2.93319 11.2594C2.69829 11.4914 2.3811 11.6211 2.05089 11.6201C1.72069 11.6191 1.4043 11.4875 1.1708 11.254C0.937313 11.0205 0.805696 10.7041 0.804693 10.3739C0.803691 10.0437 0.933385 9.72652 1.16545 9.49162L9.91546 0.741623C10.1499 0.507212 10.4678 0.375523 10.7993 0.375523C11.1308 0.375523 11.4488 0.507212 11.6832 0.741622L20.4332 9.49162C20.6653 9.72652 20.795 10.0437 20.794 10.3739C20.793 10.7041 20.6613 11.0205 20.4278 11.254C20.1944 11.4875 19.878 11.6191 19.5478 11.6201C19.2176 11.6211 18.9004 11.4914 18.6655 11.2593Z" fill="#002378"/>
</svg>
