<svg width="20" height="20" viewBox="0 0 20 20" fill="none" xmlns="http://www.w3.org/2000/svg">
<g clip-path="url(#clip0_109_39)">
<path d="M16.4453 20C16.5209 20 16.597 19.9857 16.6696 19.9553C16.8888 19.865 17.0312 19.6509 17.0312 19.4141V0.585919C17.0312 0.349044 16.8888 0.135021 16.6696 0.0446301C16.4499 -0.0463465 16.1987 0.00459099 16.031 0.171661L3.1404 13.1014C2.97275 13.269 2.9224 13.5208 3.01337 13.74C3.10376 13.9591 3.31779 14.1016 3.55466 14.1016H10.3433L16.031 19.8284C16.1432 19.9405 16.2931 20 16.4453 20Z" fill="#002378"/>
</g>
<defs>
<clipPath id="clip0_109_39">
<rect width="20" height="20" fill="white" transform="matrix(-1 0 0 1 20 0)"/>
</clipPath>
</defs>
</svg>
