<svg width="40" height="40" viewBox="0 0 40 40" fill="none" xmlns="http://www.w3.org/2000/svg">
<path d="M26.5 1.5102C26.0703 2.20528 25.6172 2.91615 25.6172 2.91615C23.0313 0.957303 20.3438 0.483388 18.3906 0.467591C15.8125 0.443895 13.9531 1.19426 13.875 1.22585C13.3281 1.45491 13.0547 2.0868 13.2813 2.6397C13.5078 3.1926 14.1328 3.46115 14.6797 3.23999C14.6953 3.2321 16.2031 2.6318 18.2891 2.6318H18.461C20.7188 2.6713 22.7422 3.38217 24.4922 4.76442C24.4922 4.76442 24.2188 5.15145 23.4688 6.25725C23.5547 6.25725 28.1953 6.03609 28.1953 6.03609C28.1953 6.03609 27.2813 3.57963 26.5 1.5102Z" fill="#FFC7CA"/>
<path d="M5.33594 35.64C5.86719 35.0318 6.4375 34.4 6.4375 34.4C8.66406 36.7695 11.2344 37.6858 13.1641 38.0333C15.7031 38.4914 17.6641 38.0649 17.7422 38.0412C18.3203 37.9148 18.6875 37.3303 18.5625 36.7458C18.4375 36.1613 17.8594 35.7901 17.2813 35.9165C17.2656 35.9165 15.6797 36.2561 13.625 35.9086C13.5703 35.9007 13.5156 35.8928 13.4609 35.877C11.2344 35.4584 9.35938 34.4158 7.86719 32.7571C7.86719 32.7571 8.20313 32.4174 9.125 31.4617C9.03906 31.4459 4.42969 30.8772 4.42969 30.8772C4.42969 30.8772 4.90625 33.46 5.33594 35.64Z" fill="#FFC7CA"/>
<path d="M14.7266 17.3389L11.1484 24.811L7.97656 17.3389L9.22656 9.44824H13.5312L14.7266 17.3389Z" fill="white"/>
<path d="M22.3906 22.9786C22.4062 19.5743 20.6953 17.7103 18.6953 16.2964C17.7031 15.5934 15.7031 14.5113 14.3125 13.9426C14.3125 15.9015 12.3516 16.6755 11.3516 16.6755C10.3516 16.6755 8.39061 15.9015 8.39061 13.9426C6.99218 14.5034 4.99218 15.5934 4.0078 16.2964C2.0078 17.7181 0.289055 19.5822 0.312493 22.9786V28.713H11.3594H22.4062L22.3906 22.9786Z" fill="#FFC221"/>
<path d="M15.6875 7.41028C15.6875 7.41028 15.6875 7.3155 15.6875 7.25231C15.75 4.63788 13.7891 2.41837 11.2969 2.38678C8.8125 2.34729 6.78906 4.44831 6.78906 7.04694C6.78906 7.33919 6.89063 8.49239 7.13281 9.36913C7.86719 11.6755 9.58594 12.8603 10.5547 13.3579C10.9844 13.5791 11.4922 13.5791 11.9219 13.3579C12.8906 12.8524 14.6328 11.6518 15.3594 9.31384C15.5781 8.73724 15.6875 7.41028 15.6875 7.41028Z" fill="white"/>
<path d="M6.86724 6.17842C6.86724 6.17842 8.32037 5.23849 8.82037 3.90363C8.82037 3.90363 11.4454 6.05204 14.7344 4.85146C14.7344 4.85146 15.1797 5.38856 15.5938 6.17842C15.5938 6.17842 15.6407 7.76603 15.5938 8.23205C15.5938 8.23205 17.3907 6.91299 16.3594 3.54029C15.6563 1.2576 13.3829 0.21499 10.6641 0.32557C7.94537 0.43615 7.46099 1.76311 7.60943 2.3792C7.60943 2.3792 7.05474 2.28442 6.51568 2.75043C5.67974 3.46921 5.21099 7.27632 6.94537 8.46111C6.94537 8.46111 6.75006 6.68393 6.86724 6.17842Z" fill="#AD5949"/>
<path d="M32.0156 25.3404L28.4453 32.8124L25.2656 25.3404L26.5156 17.4497H30.8203L32.0156 25.3404Z" fill="white"/>
<path d="M39.6798 30.9876C39.6954 27.5833 37.9845 25.7193 35.9845 24.3054C34.9923 23.6025 32.9923 22.5204 31.6017 21.9517C31.6017 23.9105 29.6407 24.6846 28.6407 24.6846C27.6407 24.6846 25.6798 23.9105 25.6798 21.9517C24.2814 22.5125 22.2814 23.6025 21.297 24.3054C19.297 25.7193 17.586 27.5912 17.6017 30.9876V39.6761H28.6485H39.6876L39.6798 30.9876Z" fill="#FF7B5D"/>
<path d="M32.9766 15.4118C32.9766 15.4118 32.9766 15.317 32.9766 15.2538C33.0391 12.6394 31.0781 10.4199 28.5859 10.3883C26.1016 10.3567 24.0859 12.4577 24.0859 15.0564C24.0859 15.3486 24.1875 16.5018 24.4297 17.3785C25.1641 19.6849 26.8828 20.8697 27.8516 21.3673C28.2812 21.5885 28.7891 21.5885 29.2187 21.3673C30.1875 20.8618 31.9297 19.6612 32.6562 17.3233C32.8672 16.7388 32.9766 15.4118 32.9766 15.4118Z" fill="white"/>
<path d="M17.5938 33.3494H22.3438V39.6919H17.5938V33.3494Z" fill="white"/>
<path d="M34.9453 33.3494H39.6953V39.6919H34.9453V33.3494Z" fill="white"/>
<path d="M23.8828 14.2268V12.8445C23.8828 10.3644 26.1094 8.35815 28.5625 8.35815C31.0156 8.35815 33.2422 10.3644 33.2422 12.8445V14.2268C33.2422 14.2268 28.6484 12.1574 23.8828 14.2268Z" fill="#93D2FF"/>
<path d="M23.7031 13.4687C23.7031 13.4687 28.0859 11.5177 33.4062 13.5476C33.4062 13.5476 34.5781 14.1637 33.1015 14.685C33.1015 14.685 28.9453 13.1211 23.8281 14.6061C23.8203 14.6061 22.5703 13.832 23.7031 13.4687Z" fill="#93D2FF"/>
<path d="M28.9141 27.8677C28.1406 27.8677 27.5156 28.4996 27.5156 29.2815C27.5156 30.0635 28.1406 30.6954 28.9141 30.6954C29.0391 30.6954 29.1641 30.6796 29.2891 30.648L29.3437 30.6954V32.2988H30.3203V29.2815C30.3203 28.4996 29.6875 27.8677 28.9141 27.8677Z" fill="white"/>
<path d="M5.03906 29.0289C4.86719 29.0289 4.73438 28.8867 4.73438 28.7209V23.4367C4.73438 23.2629 4.875 23.1287 5.03906 23.1287C5.20312 23.1287 5.34375 23.2708 5.34375 23.4367V28.7209C5.35156 28.8867 5.21094 29.0289 5.03906 29.0289Z" fill="black"/>
<path d="M22.3438 39.9999C22.1719 39.9999 22.0391 39.8578 22.0391 39.6919V31.1298C22.0391 30.9561 22.1797 30.8218 22.3438 30.8218C22.5156 30.8218 22.6484 30.964 22.6484 31.1298V39.684C22.6484 39.8578 22.5078 39.9999 22.3438 39.9999Z" fill="black"/>
<path d="M34.9453 39.9999C34.7734 39.9999 34.6406 39.8578 34.6406 39.6919V31.1298C34.6406 30.9561 34.7812 30.8218 34.9453 30.8218C35.1172 30.8218 35.25 30.964 35.25 31.1298V39.684C35.25 39.8578 35.1172 39.9999 34.9453 39.9999Z" fill="black"/>
<path d="M26.5158 13.0817C26.3518 13.0817 26.219 12.9554 26.2112 12.7895C26.0549 9.95389 27.8284 8.27939 27.9065 8.20831C28.0315 8.08983 28.2268 8.09773 28.344 8.232C28.4612 8.35838 28.4534 8.55584 28.3205 8.67432C28.2971 8.69802 26.6877 10.2303 26.8283 12.7579C26.8362 12.9317 26.7112 13.0738 26.5393 13.0896C26.5237 13.0817 26.5158 13.0817 26.5158 13.0817Z" fill="black"/>
<path d="M30.1642 12.9712C30.1564 12.9712 30.1486 12.9712 30.1408 12.9712C29.9689 12.9554 29.8439 12.8053 29.8595 12.6394C30.0627 10.1593 28.922 8.60325 28.9064 8.58745C28.8049 8.45317 28.8283 8.25571 28.9689 8.15303C29.1017 8.05035 29.297 8.07404 29.3986 8.20832C29.4533 8.27941 30.6955 9.95391 30.4689 12.6868C30.4611 12.8527 30.3205 12.9712 30.1642 12.9712Z" fill="black"/>
<path d="M30.2969 29.3765C30.1797 29.3765 30.0625 29.3054 30.0156 29.1869C29.9531 29.029 30.0234 28.8473 30.1797 28.7841C32.9375 27.6309 33.0938 22.8286 33.0938 22.7812C33.1016 22.6074 33.2422 22.4731 33.4063 22.481C33.5781 22.4889 33.7109 22.6311 33.7031 22.797C33.6953 23.0102 33.5391 28.0416 30.4141 29.3528C30.3828 29.3686 30.3359 29.3765 30.2969 29.3765Z" fill="black"/>
<path d="M27.5235 29.4318C27.4923 29.4318 27.4532 29.4239 27.422 29.416C24.0939 28.2075 23.5938 23.0419 23.5782 22.8207C23.5626 22.6469 23.6876 22.4969 23.8595 22.4811C24.0313 22.4653 24.1798 22.5917 24.1954 22.7654C24.2032 22.8128 24.6798 27.7573 27.6407 28.8315C27.797 28.8868 27.8829 29.0685 27.8282 29.2265C27.7736 29.3528 27.6485 29.4318 27.5235 29.4318Z" fill="black"/>
<path d="M0.304776 29.0289C0.132901 29.0289 8.89045e-05 28.8867 8.89045e-05 28.7208V22.9864C-0.0155361 19.2583 2.03134 17.3153 3.82821 16.0515C4.52353 15.5618 5.72665 14.8667 6.8829 14.298C7.03915 14.219 7.21884 14.2901 7.29696 14.4402C7.37509 14.5981 7.30478 14.7798 7.15634 14.8588C6.02353 15.4196 4.85165 16.0831 4.18759 16.5649C2.41415 17.8208 0.601651 19.5663 0.625089 22.9943V28.7287C0.617276 28.8867 0.476651 29.0289 0.304776 29.0289Z" fill="black"/>
<path d="M22.3672 22.5126C22.2109 22.5126 22.0703 22.3862 22.0625 22.2282C21.8359 19.2741 20.1484 17.7023 18.5234 16.5491C17.6094 15.9015 15.8984 14.9694 14.5859 14.4007C14.3125 16.2253 12.4062 16.9915 11.3516 16.9915C10.2109 16.9915 8.08594 16.0989 8.08594 13.9426C8.08594 13.7688 8.22656 13.6346 8.39063 13.6346C8.5625 13.6346 8.69531 13.7767 8.69531 13.9426C8.69531 15.7909 10.6406 16.3675 11.3516 16.3675C12.0625 16.3675 14.0078 15.7909 14.0078 13.9426C14.0078 13.8399 14.0547 13.7451 14.1406 13.6819C14.2266 13.6267 14.3359 13.6109 14.4297 13.6504C15.7969 14.2033 17.8359 15.2933 18.875 16.0357C20.5078 17.1968 22.4219 18.9424 22.6719 22.1729C22.6875 22.3467 22.5625 22.4968 22.3906 22.5047C22.3828 22.5126 22.375 22.5126 22.3672 22.5126Z" fill="black"/>
<path d="M17.6017 39.9843C17.4298 39.9843 17.297 39.8421 17.297 39.6762V30.9878C17.2813 27.2596 19.3282 25.3166 21.1251 24.0528C21.8595 23.5315 23.1173 22.8127 24.3282 22.2282C24.7813 22.0071 25.2032 21.8175 25.5704 21.6674C25.6642 21.628 25.7735 21.6437 25.8595 21.699C25.9454 21.7543 25.9923 21.857 25.9923 21.9597C25.9923 23.808 27.9376 24.3846 28.6485 24.3846C29.3595 24.3846 31.3048 23.808 31.3048 21.9597C31.3048 21.7859 31.4454 21.6516 31.6095 21.6516C31.7813 21.6516 31.9142 21.7938 31.9142 21.9597C31.9142 24.1081 29.7892 25.0085 28.6485 25.0085C27.5938 25.0085 25.6876 24.2424 25.4142 22.4178C25.1563 22.5284 24.8907 22.6548 24.6017 22.7969C23.4376 23.3656 22.1798 24.0765 21.4845 24.5741C19.711 25.83 17.8985 27.5756 17.922 31.0036V39.692C17.9063 39.8421 17.7657 39.9843 17.6017 39.9843Z" fill="black"/>
<path d="M39.6876 39.9844C39.5157 39.9844 39.3829 39.8423 39.3829 39.6764V30.9879C39.3986 27.56 37.5939 25.8144 35.8204 24.5585C35.1017 24.0451 33.8126 23.3184 32.6251 22.7497C32.4689 22.6786 32.4064 22.4891 32.4767 22.339C32.547 22.181 32.7345 22.1178 32.8829 22.1889C34.1017 22.7734 35.422 23.5238 36.1642 24.053C37.9532 25.3247 40.0079 27.2598 39.9923 30.9958V39.6843C39.9923 39.8423 39.8517 39.9844 39.6876 39.9844Z" fill="black"/>
<path d="M20.8984 33.6576H17.5937C17.4219 33.6576 17.2891 33.5154 17.2891 33.3495C17.2891 33.1758 17.4297 33.0415 17.5937 33.0415H20.8984C21.0703 33.0415 21.2031 33.1837 21.2031 33.3495C21.2031 33.5154 21.0703 33.6576 20.8984 33.6576Z" fill="black"/>
<path d="M39.6953 33.6576H34.9453C34.7734 33.6576 34.6406 33.5154 34.6406 33.3495C34.6406 33.1758 34.7812 33.0415 34.9453 33.0415H39.6953C39.8672 33.0415 40 33.1837 40 33.3495C40 33.5154 39.8594 33.6576 39.6953 33.6576Z" fill="black"/>
<path d="M33.2422 13.7926C33.0703 13.7926 32.9375 13.6504 32.9375 13.4845V12.8447C32.9375 10.6252 30.8984 8.67428 28.5625 8.67428C26.5156 8.67428 24.625 10.1987 24.2578 12.1418C24.2265 12.3076 24.0625 12.4182 23.8984 12.3866C23.7343 12.355 23.625 12.1892 23.6562 12.0233C23.8593 10.9333 24.4843 9.92226 25.3984 9.18769C26.3125 8.45312 27.4297 8.05029 28.5625 8.05029C29.8203 8.05029 31.0859 8.5558 32.0312 9.44834C33.0078 10.3725 33.5469 11.5731 33.5469 12.8447V13.4845C33.5469 13.6504 33.4062 13.7926 33.2422 13.7926Z" fill="black"/>
<path d="M23.461 6.57313C23.3438 6.57313 23.2422 6.50994 23.1875 6.40726C23.1328 6.30458 23.1406 6.1782 23.2031 6.08342C23.6328 5.45943 23.8985 5.0645 24.0547 4.83544C22.4141 3.61906 20.5313 2.97928 18.4453 2.94768C18.1485 2.93978 17.8516 2.94768 17.5547 2.97138C17.3828 2.98717 17.2422 2.8529 17.2266 2.67913C17.2188 2.50536 17.3438 2.36319 17.5156 2.34739C17.8281 2.32369 18.1406 2.31579 18.461 2.32369C20.7813 2.36319 22.875 3.09775 24.6719 4.5195C24.8047 4.62218 24.8281 4.81175 24.7344 4.94602C24.7344 4.94602 24.5391 5.21457 24.0625 5.91755C24.9688 5.87806 26.6953 5.79907 27.75 5.74378C27.5 5.0566 26.9531 3.59537 26.4297 2.19732C26.125 2.67913 25.875 3.07406 25.875 3.08196C25.8281 3.15304 25.7578 3.20833 25.6719 3.21623C25.586 3.23203 25.5 3.20833 25.4297 3.16094C22.8594 1.20999 20.1797 0.78347 18.3828 0.775571C16.5703 0.759774 15.1172 1.13891 14.4141 1.36007C14.25 1.41536 14.0781 1.32057 14.0313 1.1547C13.9766 0.988833 14.0703 0.815064 14.2344 0.767672C14.9688 0.530715 16.4922 0.135786 18.3906 0.151583C20.2188 0.16738 22.9141 0.586005 25.5313 2.46587C25.7031 2.19732 25.9766 1.76289 26.2344 1.34427C26.2969 1.24159 26.4063 1.1863 26.5235 1.20209C26.6406 1.20999 26.7422 1.28898 26.7813 1.39956C27.5547 3.45319 28.461 5.90965 28.4688 5.93335C28.5 6.02813 28.4922 6.13081 28.4375 6.2098C28.3828 6.28878 28.2969 6.34407 28.1953 6.35197C27.4219 6.39146 23.5469 6.57313 23.461 6.57313Z" fill="black"/>
<path d="M15.5237 38.5547C14.8205 38.5547 14.0002 38.4994 13.1096 38.3414C11.3127 38.0176 8.7268 37.1487 6.44555 34.8581C6.23461 35.0951 5.89086 35.4742 5.57055 35.8454C5.49242 35.9323 5.37523 35.9718 5.25805 35.9402C5.14867 35.9086 5.06273 35.8139 5.0393 35.7033C4.60961 33.5549 4.12523 30.972 4.12523 30.9483C4.10961 30.8536 4.13304 30.7509 4.20336 30.6798C4.27367 30.6087 4.36742 30.5692 4.46898 30.585C5.24242 30.6798 9.09398 31.1537 9.17992 31.1695C9.2893 31.1853 9.38305 31.2722 9.42211 31.3828C9.46117 31.4933 9.42992 31.6118 9.3518 31.6987C8.82836 32.2437 8.49242 32.5912 8.30492 32.7808C9.71899 34.2578 11.4768 35.2057 13.5237 35.5848C13.5784 35.5927 13.633 35.6085 13.6877 35.6164C14.4455 35.7428 15.2268 35.7981 16.0002 35.7586C16.1721 35.7507 16.3127 35.8849 16.3205 36.0587C16.3284 36.2325 16.1956 36.3747 16.0237 36.3826C15.2034 36.4141 14.383 36.3668 13.5784 36.2325C13.5237 36.2246 13.4612 36.2088 13.4065 36.2009C11.1252 35.7744 9.17992 34.6923 7.64086 32.9862C7.53148 32.8598 7.53148 32.6702 7.64867 32.5517C7.64867 32.5517 7.88305 32.3148 8.46898 31.7066C7.56273 31.596 5.8518 31.3828 4.80492 31.2564C4.93773 31.9751 5.23461 33.5075 5.52367 34.9766C5.89867 34.5501 6.21117 34.2025 6.21898 34.2025C6.27367 34.1394 6.35961 34.0999 6.44555 34.0999C6.53148 34.0999 6.60961 34.1315 6.67211 34.1946C8.88305 36.5484 11.4612 37.4173 13.2268 37.7411C15.3518 38.1202 17.0706 37.8675 17.5471 37.7806C17.7112 37.749 17.8752 37.8596 17.9065 38.0334C17.9377 38.1992 17.8284 38.3651 17.6565 38.3967C17.344 38.4362 16.5784 38.5547 15.5237 38.5547Z" fill="black"/>
<path d="M11.2422 13.8398C10.9609 13.8398 10.6797 13.7766 10.4219 13.6424C9.41406 13.1211 7.61719 11.881 6.85156 9.47192C6.85156 9.46402 6.85156 9.46402 6.85156 9.45613C6.59375 8.53989 6.48438 7.363 6.48438 7.04706C6.48438 6.87329 6.625 6.73901 6.78906 6.73901C6.95313 6.73901 7.09375 6.88119 7.09375 7.04706C7.09375 7.33141 7.19531 8.43721 7.42187 9.28236C8.125 11.4782 9.76562 12.6077 10.6875 13.0895C11.0234 13.2632 11.4297 13.2632 11.7734 13.0895C12.7031 12.6077 14.3672 11.4624 15.0547 9.22707C15.0547 9.21917 15.0547 9.21917 15.0625 9.21127C15.2266 8.76895 15.3437 7.74213 15.3672 7.3867C15.3828 7.21293 15.5312 7.08655 15.7031 7.10235C15.875 7.11815 16 7.26822 15.9844 7.44199C15.9766 7.49728 15.8672 8.80844 15.6406 9.42453C14.8828 11.8652 13.0703 13.1132 12.0547 13.6424C11.8047 13.7766 11.5234 13.8398 11.2422 13.8398Z" fill="black"/>
<path d="M6.94552 8.77698C6.88302 8.77698 6.82833 8.76118 6.77364 8.72169C6.00802 8.19249 5.54708 7.16567 5.46896 5.82291C5.39083 4.41697 5.75802 2.99522 6.31271 2.51341C6.66427 2.21326 7.02364 2.11058 7.28146 2.07109C7.30489 1.77094 7.42208 1.4629 7.61739 1.19434C7.98458 0.696734 8.81271 0.0885433 10.6486 0.00955746C13.7033 -0.124718 15.9455 1.16275 16.6486 3.43754C17.7346 6.97611 15.8518 8.41365 15.7736 8.46894C15.6721 8.54002 15.5471 8.54792 15.4377 8.48473C15.3361 8.42155 15.2736 8.30307 15.2815 8.18459C15.3205 7.83705 15.2971 6.73125 15.2815 6.24944C15.0315 5.78342 14.7736 5.41219 14.6252 5.20682C13.9377 5.42798 13.2893 5.52277 12.6799 5.52277C10.9143 5.52277 9.53927 4.7645 8.94552 4.36957C8.42989 5.38849 7.47677 6.11516 7.14864 6.35212C7.10177 6.78654 7.17989 7.82125 7.25021 8.42155C7.26583 8.54002 7.20333 8.6585 7.10177 8.72169C7.05489 8.76118 7.00021 8.77698 6.94552 8.77698ZM7.48458 2.67928C7.34396 2.67928 7.03146 2.71087 6.71114 2.98732C6.35958 3.29537 6.00802 4.51965 6.07833 5.79132C6.10177 6.26523 6.20333 7.0077 6.55489 7.60009C6.51583 7.05509 6.49239 6.41531 6.57052 6.10726C6.58614 6.02828 6.63302 5.95719 6.70333 5.9177C6.71896 5.9098 8.07052 5.01726 8.53146 3.79298C8.56271 3.69819 8.64083 3.62711 8.74239 3.60341C8.83614 3.57972 8.93771 3.59551 9.01583 3.6587C9.03927 3.6824 11.5549 5.68074 14.633 4.55914C14.758 4.51175 14.8908 4.55124 14.9768 4.65392C14.9924 4.67762 15.4533 5.23052 15.8674 6.03617C15.8908 6.07567 15.8986 6.12306 15.9065 6.17045C15.9065 6.20994 15.9221 6.79444 15.9299 7.35524C16.3049 6.70755 16.6486 5.52277 16.0705 3.63501C15.4611 1.64456 13.4455 0.522965 10.6877 0.641444C9.00802 0.712531 8.35958 1.25753 8.12521 1.58138C7.91427 1.86572 7.88302 2.15007 7.92208 2.31594C7.94552 2.41862 7.92208 2.52131 7.85177 2.60029C7.78146 2.67928 7.67989 2.71087 7.57833 2.69508C7.56271 2.68718 7.53146 2.67928 7.48458 2.67928Z" fill="black"/>
<path d="M28.5313 21.8412C28.25 21.8412 27.9688 21.778 27.7109 21.6437C26.7031 21.1224 24.9063 19.8823 24.1406 17.4732C24.1406 17.4653 24.1406 17.4653 24.1406 17.4574C23.8906 16.5412 23.7891 15.3643 23.7891 15.0484C23.7891 14.8588 23.7969 14.6771 23.8203 14.4876C23.8359 14.3138 23.9922 14.1953 24.1563 14.2111C24.3281 14.2269 24.4453 14.3849 24.4297 14.5508C24.4141 14.7166 24.4062 14.8825 24.4062 15.0405C24.4062 15.3248 24.5078 16.4306 24.7344 17.2758C25.4375 19.4716 27.0781 20.6011 28 21.0829C28.3359 21.2567 28.7422 21.2567 29.0859 21.0829C30.0156 20.6011 31.6797 19.4558 32.3672 17.2205C32.3672 17.2126 32.3672 17.2126 32.375 17.2047C32.5391 16.7624 32.6484 15.7592 32.6797 15.388C32.6797 15.2221 32.6719 14.8035 32.6563 14.6534C32.6406 14.4797 32.7656 14.3296 32.9297 14.3138C33.1016 14.298 33.25 14.4244 33.2656 14.5903C33.2891 14.8035 33.2891 15.3406 33.2891 15.3959V15.4275C33.2813 15.4828 33.1719 16.794 32.9453 17.4101C32.1875 19.8507 30.375 21.0987 29.3594 21.6279C29.0938 21.778 28.8125 21.8412 28.5313 21.8412Z" fill="black"/>
<path d="M30.3203 32.6149H29.3438C29.1719 32.6149 29.0391 32.4727 29.0391 32.3069V31.0115C29 31.0115 28.9609 31.0194 28.9219 31.0194C27.9766 31.0194 27.2109 30.2453 27.2109 29.2896C27.2109 28.3339 27.9766 27.5598 28.9219 27.5598C29.8672 27.5598 30.6328 28.3339 30.6328 29.2896V32.3069C30.625 32.4727 30.4844 32.6149 30.3203 32.6149ZM29.6484 31.9909H30.0078V29.2896C30.0078 28.6814 29.5156 28.1838 28.9141 28.1838C28.3125 28.1838 27.8203 28.6814 27.8203 29.2896C27.8203 29.8978 28.3125 30.3954 28.9141 30.3954C29.0156 30.3954 29.1094 30.3796 29.2031 30.3559C29.3047 30.3243 29.4141 30.3559 29.4922 30.427L29.5469 30.4744C29.6094 30.5297 29.6484 30.6166 29.6484 30.7034V31.9909Z" fill="black"/>
<path d="M14.3125 14.2585C14.1718 14.2585 14.039 14.1559 14.0078 14.0058L13.5937 11.9127C13.5625 11.7468 13.6718 11.5809 13.8359 11.5493C14 11.5177 14.164 11.6283 14.1953 11.7942L14.6093 13.8873C14.6406 14.0532 14.5312 14.219 14.3671 14.2506C14.3515 14.2585 14.3281 14.2585 14.3125 14.2585Z" fill="black"/>
<path d="M8.3595 14.4482C8.33606 14.4482 8.31263 14.4482 8.28919 14.4403C8.12513 14.4008 8.01575 14.2349 8.05481 14.069L8.50013 12.0233C8.53919 11.8574 8.70325 11.7469 8.86731 11.7863C9.03137 11.8258 9.14075 11.9917 9.10169 12.1576L8.65638 14.2033C8.62513 14.3455 8.50013 14.4482 8.3595 14.4482Z" fill="black"/>
<path d="M25.7657 22.5127C25.7501 22.5127 25.7344 22.5127 25.7188 22.5127C25.5547 22.489 25.4376 22.3231 25.461 22.1573L25.7969 20.0483C25.8204 19.8825 25.9844 19.764 26.1485 19.7877C26.3126 19.8114 26.4297 19.9773 26.4063 20.1431L26.0704 22.252C26.0469 22.41 25.9141 22.5127 25.7657 22.5127Z" fill="black"/>
<path d="M31.6172 22.4415C31.4765 22.4415 31.3437 22.3388 31.3125 22.1888L30.9062 20.064C30.875 19.8982 30.9843 19.7323 31.1484 19.7007C31.3125 19.6691 31.4765 19.7797 31.5078 19.9456L31.914 22.0703C31.9453 22.2362 31.8359 22.402 31.6718 22.4336C31.6562 22.4336 31.6406 22.4415 31.6172 22.4415Z" fill="black"/>
<path d="M33.0938 14.9932C33.0548 14.9932 33.0235 14.9853 32.9845 14.9774C32.9454 14.9616 28.8516 13.4688 23.8985 14.9063C23.8126 14.93 23.7266 14.9221 23.6563 14.8747C23.4688 14.7562 22.8595 14.3455 22.922 13.8242C22.9532 13.532 23.1798 13.3187 23.586 13.1765C23.922 13.0344 28.2345 11.2414 33.5079 13.2555C33.5157 13.2634 33.5313 13.2634 33.5391 13.2713C33.6485 13.3266 34.1798 13.6347 34.1407 14.1244C34.1016 14.6615 33.4141 14.8984 33.1876 14.9774C33.1641 14.9853 33.1329 14.9932 33.0938 14.9932ZM28.3751 13.6505C30.8595 13.6505 32.6329 14.1955 33.0938 14.3534C33.4923 14.1955 33.5313 14.077 33.5313 14.077C33.5235 14.0296 33.4063 13.9111 33.2735 13.8321C28.1563 11.8891 23.8673 13.7373 23.8204 13.7531C23.8126 13.761 23.8048 13.761 23.7891 13.761C23.6016 13.8242 23.5391 13.8795 23.5313 13.8953C23.5391 13.9743 23.6954 14.1323 23.8673 14.2586C25.5157 13.8005 27.047 13.6505 28.3751 13.6505Z" fill="black"/>
</svg>
