<svg width="50" height="42" viewBox="0 0 50 42" fill="none" xmlns="http://www.w3.org/2000/svg">
<path d="M12.8516 6.96289H47.9492V35.7031H12.8516V6.96289Z" fill="white"/>
<path d="M30.9277 27.1875H34.0918V32.1484H30.9277V27.1875Z" fill="#FF7B5D"/>
<path d="M36.377 20.1074H39.541V32.1387H36.377V20.1074Z" fill="#FF7B5D"/>
<path d="M41.8262 23.877H44.9902V32.1387H41.8262V23.877Z" fill="#FF7B5D"/>
<path d="M48.2031 4.79492H12.5977C11.8164 4.79492 11.1816 5.42969 11.1816 6.21094C11.1816 6.99219 11.8164 7.62695 12.5977 7.62695H48.2031C48.9844 7.62695 49.6191 6.99219 49.6191 6.21094C49.6191 5.42969 48.9844 4.79492 48.2031 4.79492Z" fill="#AD5949"/>
<path d="M16.1523 31.9336C24.8627 31.9336 31.9238 24.8725 31.9238 16.1621C31.9238 7.45176 24.8627 0.390625 16.1523 0.390625C7.44199 0.390625 0.380859 7.45176 0.380859 16.1621C0.380859 24.8725 7.44199 31.9336 16.1523 31.9336Z" fill="#93D2FF"/>
<path d="M19.1016 24.873V13.584V12.1094H13.9844H12.8516L11.6016 14.6582H13.9844V24.873H11.6016V27.4219H21.4453V24.873H19.1016Z" fill="white"/>
<path d="M16.123 9.80469C17.6925 9.80469 18.9648 8.53237 18.9648 6.96289C18.9648 5.39341 17.6925 4.12109 16.123 4.12109C14.5536 4.12109 13.2812 5.39341 13.2812 6.96289C13.2812 8.53237 14.5536 9.80469 16.123 9.80469Z" fill="white"/>
<path d="M30.4004 38.2227C30.1855 38.2227 30.0195 38.0469 30.0195 37.8418V35.7031C30.0195 35.4883 30.1953 35.3223 30.4004 35.3223C30.6152 35.3223 30.7813 35.498 30.7813 35.7031V37.8418C30.7813 38.0566 30.6152 38.2227 30.4004 38.2227Z" fill="black"/>
<path d="M30.3418 41.4062C29.2578 41.4062 28.3691 40.5176 28.3691 39.4336C28.3691 38.3496 29.2578 37.4609 30.3418 37.4609C31.4258 37.4609 32.3145 38.3496 32.3145 39.4336C32.3047 40.5176 31.4258 41.4062 30.3418 41.4062ZM30.3418 38.2227C29.6777 38.2227 29.1406 38.7598 29.1406 39.4238C29.1406 40.0879 29.6777 40.625 30.3418 40.625C31.0059 40.625 31.543 40.0879 31.543 39.4238C31.543 38.7695 30.9961 38.2227 30.3418 38.2227Z" fill="black"/>
<path d="M44.8145 11.3379H41.6504C41.4355 11.3379 41.2695 11.1621 41.2695 10.957C41.2695 10.752 41.4453 10.5762 41.6504 10.5762H44.8145C45.0293 10.5762 45.1953 10.752 45.1953 10.957C45.1953 11.1621 45.0293 11.3379 44.8145 11.3379Z" fill="black"/>
<path d="M39.7656 11.3379H34.3555C34.1406 11.3379 33.9746 11.1621 33.9746 10.957C33.9746 10.752 34.1504 10.5762 34.3555 10.5762H39.7656C39.9805 10.5762 40.1465 10.752 40.1465 10.957C40.1465 11.1621 39.9805 11.3379 39.7656 11.3379Z" fill="black"/>
<path d="M42.7539 13.6816H39.7656C39.5508 13.6816 39.3848 13.5059 39.3848 13.3008C39.3848 13.0957 39.5605 12.9199 39.7656 12.9199H42.7539C42.9687 12.9199 43.1348 13.0957 43.1348 13.3008C43.1348 13.5059 42.959 13.6816 42.7539 13.6816Z" fill="black"/>
<path d="M38.0859 13.6816H36.7773C36.5625 13.6816 36.3965 13.5059 36.3965 13.3008C36.3965 13.0957 36.5723 12.9199 36.7773 12.9199H38.0859C38.3008 12.9199 38.4668 13.0957 38.4668 13.3008C38.4668 13.5059 38.3008 13.6816 38.0859 13.6816Z" fill="black"/>
<path d="M47.9492 36.0938H12.8516C12.6367 36.0938 12.4707 35.918 12.4707 35.7129V33.4766C12.4707 33.2617 12.6465 33.0957 12.8516 33.0957C13.0664 33.0957 13.2324 33.2715 13.2324 33.4766V35.332H47.5586V9.78516C47.5586 9.57031 47.7344 9.4043 47.9394 9.4043C48.1543 9.4043 48.3203 9.58008 48.3203 9.78516V35.7129C48.3301 35.918 48.1641 36.0938 47.9492 36.0938Z" fill="black"/>
<path d="M48.2031 7.99805H31.8262C31.6113 7.99805 31.4453 7.82227 31.4453 7.61719C31.4453 7.40234 31.6211 7.23633 31.8262 7.23633H48.2031C48.7695 7.23633 49.2285 6.77734 49.2285 6.21094C49.2285 5.64453 48.7695 5.18555 48.2031 5.18555H27.4121C27.1973 5.18555 27.0312 5.00977 27.0312 4.80469C27.0312 4.58984 27.207 4.42383 27.4121 4.42383H48.2031C49.1895 4.42383 50 5.23437 50 6.2207C50 7.20703 49.1895 7.99805 48.2031 7.99805Z" fill="black"/>
<path d="M16.1523 32.3145C14.375 32.3145 12.627 32.0312 10.957 31.4648C4.4043 29.2383 0 23.0859 0 16.1621C0 7.24609 7.24609 0 16.1523 0C25.0586 0 32.3047 7.24609 32.3047 16.1523C32.3047 25.0586 25.0586 32.3145 16.1523 32.3145ZM16.1523 0.771484C7.67578 0.771484 0.771484 7.67578 0.771484 16.1621C0.771484 22.7539 4.96094 28.6133 11.2012 30.7324C12.793 31.2695 14.4531 31.543 16.1523 31.543C24.6387 31.543 31.5332 24.6387 31.5332 16.1621C31.5332 7.68555 24.6387 0.771484 16.1523 0.771484Z" fill="black"/>
<path d="M34.0918 32.5293H30.9277C30.7129 32.5293 30.5469 32.3535 30.5469 32.1484V27.1875C30.5469 26.9727 30.7227 26.8066 30.9277 26.8066H34.0918C34.3066 26.8066 34.4727 26.9824 34.4727 27.1875V32.1484C34.4727 32.3535 34.2969 32.5293 34.0918 32.5293ZM31.3086 31.7578H33.7012V27.5684H31.3086V31.7578Z" fill="black"/>
<path d="M39.541 32.5293H36.377C36.1621 32.5293 35.9961 32.3535 35.9961 32.1484V20.1074C35.9961 19.8926 36.1719 19.7266 36.377 19.7266H39.541C39.7559 19.7266 39.9219 19.9023 39.9219 20.1074V32.1387C39.9219 32.3535 39.7559 32.5293 39.541 32.5293ZM36.7578 31.7578H39.1602V20.498H36.7676V31.7578H36.7578Z" fill="black"/>
<path d="M44.9902 32.5293H41.8262C41.6113 32.5293 41.4453 32.3535 41.4453 32.1484V23.8867C41.4453 23.6719 41.6211 23.5059 41.8262 23.5059H44.9902C45.2051 23.5059 45.3711 23.6816 45.3711 23.8867V32.1484C45.3809 32.3535 45.2051 32.5293 44.9902 32.5293ZM42.2168 31.7578H44.6094V24.2578H42.2168V31.7578Z" fill="black"/>
<path d="M21.4453 27.8125H11.6016C11.3867 27.8125 11.2207 27.6367 11.2207 27.4316V24.873C11.2207 24.6582 11.3965 24.4922 11.6016 24.4922H13.6035V15.0488H11.6016C11.4648 15.0488 11.3477 14.9805 11.2793 14.8633C11.2109 14.7461 11.2012 14.6094 11.2598 14.4922L12.5098 11.9336C12.5781 11.7969 12.7051 11.7188 12.8516 11.7188H19.1016C19.3164 11.7188 19.4824 11.8945 19.4824 12.0996V24.4824H21.4453C21.6602 24.4824 21.8262 24.6582 21.8262 24.8633V27.4219C21.8359 27.6367 21.6602 27.8125 21.4453 27.8125ZM11.9824 27.041H21.0645V25.2539H19.1016C18.8867 25.2539 18.7207 25.0781 18.7207 24.873V12.4902H13.0957L12.2168 14.2773H13.9844C14.1992 14.2773 14.3652 14.4531 14.3652 14.6582V24.8633C14.3652 25.0781 14.1895 25.2441 13.9844 25.2441H11.9824V27.041Z" fill="black"/>
<path d="M16.123 10.1953C14.3457 10.1953 12.9004 8.75 12.9004 6.97266C12.9004 5.19531 14.3457 3.75 16.123 3.75C17.9004 3.75 19.3457 5.19531 19.3457 6.97266C19.3457 8.74023 17.9004 10.1953 16.123 10.1953ZM16.123 4.51172C14.7656 4.51172 13.6719 5.61523 13.6719 6.96289C13.6719 8.32031 14.7754 9.41406 16.123 9.41406C17.4707 9.41406 18.5742 8.31055 18.5742 6.96289C18.584 5.61523 17.4805 4.51172 16.123 4.51172Z" fill="black"/>
</svg>
