<svg width="50" height="43" viewBox="0 0 50 43" fill="none" xmlns="http://www.w3.org/2000/svg">
<path d="M0.380859 6.76758H28.9746V30.9473H0.380859V6.76758Z" fill="white"/>
<path d="M0.380859 6.76758H27.9199V8.7793H0.380859V6.76758Z" fill="#AD5949"/>
<path d="M0.380859 28.9355H27.9199V30.9473H0.380859V28.9355Z" fill="#AD5949"/>
<path d="M23.8282 22.793C23.8282 22.793 19.8536 0.400391 33.711 0.400391C47.5684 0.400391 43.1153 22.6367 43.1153 22.6367L23.8282 22.793Z" fill="#FFC550"/>
<path d="M38.5938 26.1035L33.418 36.8066L28.8184 26.1035L30.625 14.7949H36.875L38.5938 26.1035Z" fill="white"/>
<path d="M33.6914 5.17578C33.0566 8.08594 30.4102 9.50195 27.207 9.56055C27.0996 10.0586 27.041 10.5859 27.041 11.1133C27.041 17.0215 30.8008 19.7461 32.666 20.7324C33.3105 21.0742 34.0625 21.0742 34.707 20.7324C36.5332 19.7559 40.1953 17.1094 40.3223 11.416C40.332 10.7715 40.2734 10.1465 40.1367 9.55078C36.9629 9.49219 34.3262 8.08594 33.6914 5.17578Z" fill="white"/>
<path d="M44.7069 23.7695C43.2714 22.7637 40.3514 21.6309 37.9003 21.2402C37.9003 24.7266 35.41 27.6172 33.7987 27.7051C31.7772 27.5391 29.4237 24.5703 29.4237 21.2402C26.9725 21.6309 24.0526 22.7637 22.6171 23.7695C19.7167 25.8008 17.6854 29.3164 17.705 34.1895V42.4121H49.619V34.1895C49.6386 29.3164 47.5975 25.8008 44.7069 23.7695Z" fill="#FFC7CA"/>
<path d="M33.6719 27.7051L32.3535 30.4297C32.3535 30.4297 28.623 26.5527 27.5977 21.6406L29.3848 21.2696C29.3848 21.2598 30.293 25.0586 33.6719 27.7051Z" fill="#93D2FF"/>
<path d="M33.7891 27.7051C37.168 25.0684 38.0762 21.2695 38.0762 21.2695L39.8633 21.6406C38.8379 26.5527 35.1074 30.4297 35.1074 30.4297L33.7891 27.7051Z" fill="#93D2FF"/>
<path d="M28.7208 11.1133H32.8516C32.8516 11.1133 33.4278 13.6719 30.7911 13.6719C28.2227 13.6719 28.7208 11.1133 28.7208 11.1133Z" fill="#93D2FF"/>
<path d="M34.502 11.1133H38.6329C38.6329 11.1133 39.2091 13.6719 36.5723 13.6719C34.004 13.6719 34.502 11.1133 34.502 11.1133Z" fill="#93D2FF"/>
<path d="M3.61328 19.9609H7.00195V25.2734H3.61328V19.9609Z" fill="#FF7B5D"/>
<path d="M9.45312 12.3926H12.8418V25.2734H9.45312V12.3926Z" fill="#FF7B5D"/>
<path d="M15.2832 16.4258H18.6719V25.2734H15.2832V16.4258Z" fill="#FF7B5D"/>
<path d="M23.3594 42.793C23.1445 42.793 22.9785 42.6172 22.9785 42.4121V34.0625C22.9785 33.8477 23.1543 33.6816 23.3594 33.6816C23.5742 33.6816 23.7402 33.8574 23.7402 34.0625V42.4121C23.7402 42.6172 23.5742 42.793 23.3594 42.793Z" fill="black"/>
<path d="M42.998 42.793C42.7832 42.793 42.6172 42.6172 42.6172 42.4121V34.0625C42.6172 33.8477 42.793 33.6816 42.998 33.6816C43.2129 33.6816 43.3789 33.8574 43.3789 34.0625V42.4121C43.3887 42.6172 43.2129 42.793 42.998 42.793Z" fill="black"/>
<path d="M33.6719 42.8613C33.457 42.8613 33.291 42.6855 33.291 42.4805V30.4297C33.291 30.2148 33.4668 30.0488 33.6719 30.0488C33.8867 30.0488 34.0527 30.2246 34.0527 30.4297V42.4805C34.0625 42.6855 33.8867 42.8613 33.6719 42.8613Z" fill="black"/>
<path d="M34.4629 12.2949H32.9102C32.6953 12.2949 32.5293 12.1191 32.5293 11.9141C32.5293 11.6992 32.7051 11.5332 32.9102 11.5332H34.4629C34.6777 11.5332 34.8438 11.709 34.8438 11.9141C34.8438 12.1191 34.6777 12.2949 34.4629 12.2949Z" fill="black"/>
<path d="M38.6231 11.4942C38.4571 11.4942 38.3106 11.3965 38.2618 11.2305C38.1934 11.0254 38.3008 10.8106 38.5059 10.7422L40.1856 10.1856C40.3907 10.1172 40.6055 10.2247 40.6739 10.4297C40.7422 10.6348 40.6348 10.8497 40.4297 10.918L38.75 11.4747C38.711 11.4942 38.6622 11.4942 38.6231 11.4942Z" fill="black"/>
<path d="M28.7207 11.4942C28.6622 11.4942 28.6036 11.4844 28.5547 11.4551L26.9239 10.6641C26.7286 10.5665 26.6504 10.3418 26.7481 10.1465C26.8458 9.95122 27.0704 9.8731 27.2657 9.97075L28.8965 10.7618C29.0918 10.8594 29.17 11.084 29.0723 11.2794C29.004 11.4161 28.8672 11.4942 28.7207 11.4942Z" fill="black"/>
<path d="M12.6074 36.8066C12.3926 36.8066 12.2266 36.6309 12.2266 36.4258V30.957C12.2266 30.7422 12.4023 30.5762 12.6074 30.5762C12.8223 30.5762 12.9883 30.752 12.9883 30.957V36.4258C12.9981 36.6406 12.8223 36.8066 12.6074 36.8066Z" fill="black"/>
<path d="M12.5684 39.8828C11.5137 39.8828 10.6445 39.0234 10.6445 37.959C10.6445 36.8945 11.5039 36.0352 12.5684 36.0352C13.623 36.0352 14.4922 36.8945 14.4922 37.959C14.4922 39.0234 13.6328 39.8828 12.5684 39.8828ZM12.5684 36.8066C11.9336 36.8066 11.416 37.3242 11.416 37.959C11.416 38.5938 11.9336 39.1113 12.5684 39.1113C13.2031 39.1113 13.7207 38.5938 13.7207 37.959C13.7207 37.3242 13.2031 36.8066 12.5684 36.8066Z" fill="black"/>
<path d="M24.1113 9.16992H0.380859C0.166016 9.16992 0 8.99414 0 8.78906V6.77734C0 6.5625 0.175781 6.39648 0.380859 6.39648H24.7461C24.9609 6.39648 25.127 6.57227 25.127 6.77734C25.127 6.98242 24.9512 7.1582 24.7461 7.1582H0.771484V8.4082H24.1113C24.3262 8.4082 24.4922 8.58398 24.4922 8.78906C24.4922 9.00391 24.3164 9.16992 24.1113 9.16992Z" fill="black"/>
<path d="M18.0176 31.3379H0.380859C0.166016 31.3379 0 31.1621 0 30.957V10.8984C0 10.6836 0.175781 10.5176 0.380859 10.5176C0.585938 10.5176 0.761719 10.6934 0.761719 10.8984V30.5762H18.0078C18.2227 30.5762 18.3887 30.752 18.3887 30.957C18.3984 31.1719 18.2324 31.3379 18.0176 31.3379Z" fill="black"/>
<path d="M23.8282 23.1738C23.6426 23.1738 23.4864 23.0469 23.4473 22.8516C23.4375 22.8223 22.8614 19.4824 22.92 15.4297C22.9981 9.95117 24.1504 5.84961 26.3477 3.23242C28.1446 1.08398 30.625 0 33.711 0C36.6895 0 39.0821 1.00586 40.8203 2.98828C42.627 5.04883 43.7207 8.14453 44.0625 12.1875C44.3457 15.4688 44.0723 18.6523 43.7989 20.7422C43.7696 20.957 43.5743 21.1035 43.3692 21.0742C43.1543 21.0449 43.0078 20.8496 43.0371 20.6445C43.5157 16.9922 44.209 8.00781 40.2442 3.48633C38.6621 1.67969 36.4649 0.761719 33.711 0.761719C30.8594 0.761719 28.584 1.75781 26.9336 3.7207C21.9629 9.6582 24.1797 22.5781 24.209 22.7148C24.2481 22.9199 24.1114 23.125 23.8965 23.1641C23.877 23.1738 23.8477 23.1738 23.8282 23.1738Z" fill="black"/>
<path d="M17.705 42.7929C17.4901 42.7929 17.3241 42.6171 17.3241 42.412V34.1894C17.3046 29.58 19.1015 25.7616 22.3925 23.457C23.1835 22.9003 24.3652 22.3241 25.7421 21.8261C25.9374 21.7577 26.162 21.8554 26.2304 22.0605C26.2987 22.2558 26.2011 22.4804 25.996 22.5488C24.707 23.0175 23.5546 23.5741 22.8319 24.082C19.746 26.2402 18.0663 29.8339 18.0859 34.1894V42.412C18.0859 42.6171 17.9101 42.7929 17.705 42.7929Z" fill="black"/>
<path d="M49.6192 42.793C49.4043 42.793 49.2383 42.6173 49.2383 42.4122V34.1895C49.2579 29.8341 47.5782 26.2403 44.4922 24.0821C43.0372 23.0665 40.1173 21.9825 37.8516 21.6212C37.6466 21.5919 37.5001 21.3868 37.5294 21.1817C37.5587 20.9766 37.7637 20.8301 37.9688 20.8594C40.3809 21.2403 43.3692 22.3634 44.9317 23.4571C48.2227 25.7618 50.0293 29.5801 50 34.1993V42.4122C50 42.6173 49.8243 42.793 49.6192 42.793Z" fill="black"/>
<path d="M33.6914 21.3867C33.2813 21.3867 32.8711 21.2891 32.4902 21.084C31.4941 20.5566 30.0586 19.5996 28.8574 18.0078C27.4023 16.0937 26.6699 13.7793 26.6699 11.123C26.6699 10.5762 26.7285 10.0293 26.8359 9.48242C26.875 9.30664 27.0215 9.17969 27.207 9.17969C30.5469 9.11133 32.7734 7.62695 33.3203 5.09766C33.3594 4.92187 33.5156 4.79492 33.6914 4.79492C33.877 4.79492 34.0332 4.92187 34.0625 5.09766C34.6094 7.61719 36.8262 9.11133 40.1563 9.17969C40.332 9.17969 40.4883 9.30664 40.5274 9.48242C40.6738 10.127 40.7324 10.7812 40.7227 11.4355C40.6641 13.9941 39.9121 16.2402 38.4766 18.0859C37.2852 19.6289 35.8789 20.5566 34.9024 21.0742C34.5215 21.2891 34.1113 21.3867 33.6914 21.3867ZM27.5391 9.9414C27.4707 10.332 27.4414 10.7324 27.4414 11.123C27.4414 16.6992 30.8398 19.3359 32.8613 20.4101C33.3984 20.6934 34.0039 20.6934 34.541 20.4101C36.5137 19.3652 39.834 16.8066 39.9512 11.4258C39.961 10.9277 39.9219 10.4297 39.834 9.9414C36.8555 9.79492 34.6484 8.50586 33.6914 6.40625C32.7441 8.51562 30.5273 9.80469 27.5391 9.9414Z" fill="black"/>
<path d="M32.3535 30.8105C32.2461 30.8105 32.1484 30.7715 32.08 30.6933C31.9238 30.5273 28.2617 26.6797 27.2265 21.7187C27.1875 21.5137 27.3144 21.3086 27.5195 21.2597L29.3066 20.8887C29.5117 20.8496 29.707 20.9765 29.7558 21.1719C29.7656 21.2109 30.6836 24.873 33.9062 27.3926C34.0527 27.5 34.0918 27.7051 34.0136 27.8613L32.6953 30.5859C32.6367 30.7031 32.5293 30.7812 32.4121 30.8008C32.3925 30.8105 32.373 30.8105 32.3535 30.8105ZM28.0566 21.9336C28.9355 25.6054 31.3281 28.6621 32.2558 29.7363L33.1933 27.8027C30.498 25.5859 29.4238 22.7148 29.1113 21.709L28.0566 21.9336Z" fill="black"/>
<path d="M35.1073 30.8105C35.0878 30.8105 35.0683 30.8105 35.0488 30.8105C34.9218 30.791 34.8144 30.7128 34.7656 30.5957L33.4472 27.8711C33.3691 27.705 33.4179 27.5097 33.5546 27.4023C36.787 24.8828 37.6952 21.2109 37.705 21.1816C37.7538 20.9765 37.9589 20.8496 38.1542 20.8984L39.9413 21.2695C40.1464 21.3085 40.2831 21.5136 40.2441 21.7285C39.2089 26.6894 35.5468 30.5468 35.3906 30.7031C35.3124 30.7714 35.2148 30.8105 35.1073 30.8105ZM34.2675 27.8125L35.205 29.7461C36.1327 28.6621 38.5253 25.6054 39.4042 21.9433L38.3593 21.7285C38.0468 22.7148 36.9628 25.5859 34.2675 27.8125Z" fill="black"/>
<path d="M30.7909 14.0527C29.9218 14.0527 29.2577 13.7891 28.828 13.2617C28.0956 12.373 28.3397 11.0937 28.3495 11.0352C28.3886 10.8594 28.5448 10.7227 28.7304 10.7227H32.8612C33.037 10.7227 33.1933 10.8496 33.2323 11.0254C33.2421 11.0742 33.5253 12.3438 32.8026 13.2422C32.3729 13.7793 31.6893 14.0527 30.7909 14.0527ZM29.0721 11.4941C29.0624 11.8359 29.1014 12.3828 29.4237 12.7734C29.7069 13.1055 30.1659 13.2813 30.7909 13.2813C31.4452 13.2813 31.9237 13.1055 32.1972 12.7637C32.5097 12.373 32.539 11.8262 32.5097 11.4941H29.0721Z" fill="black"/>
<path d="M36.5624 14.0527C35.6932 14.0527 35.0292 13.7891 34.5995 13.2617C33.8671 12.373 34.1112 11.0937 34.121 11.0352C34.16 10.8594 34.3163 10.7227 34.5018 10.7227H38.6327C38.8085 10.7227 38.9647 10.8496 39.0038 11.0254C39.0135 11.0742 39.287 12.3438 38.5741 13.2422C38.1444 13.7793 37.4706 14.0527 36.5624 14.0527ZM34.8436 11.4941C34.8339 11.8359 34.8729 12.3828 35.1952 12.7734C35.4784 13.1055 35.9374 13.2813 36.5624 13.2813C37.2167 13.2813 37.6952 13.1055 37.9686 12.7637C38.2811 12.373 38.3104 11.8262 38.2811 11.4941H34.8436Z" fill="black"/>
<path d="M7.00195 25.6543H3.61328C3.39844 25.6543 3.23242 25.4785 3.23242 25.2734V19.9609C3.23242 19.7461 3.4082 19.5801 3.61328 19.5801H7.00195C7.2168 19.5801 7.38281 19.7559 7.38281 19.9609V25.2734C7.38281 25.4785 7.2168 25.6543 7.00195 25.6543ZM4.00391 24.8828H6.62109V20.3418H4.00391V24.8828Z" fill="black"/>
<path d="M12.832 25.6543H9.45313C9.23828 25.6543 9.07227 25.4785 9.07227 25.2734V12.3926C9.07227 12.1777 9.24805 12.0117 9.45313 12.0117H12.8418C13.0566 12.0117 13.2227 12.1875 13.2227 12.3926V25.2734C13.2227 25.4785 13.0469 25.6543 12.832 25.6543ZM9.83398 24.8828H12.4512V12.7734H9.83398V24.8828Z" fill="black"/>
<path d="M18.6719 25.6543H15.2832C15.0684 25.6543 14.9023 25.4785 14.9023 25.2734V16.4258C14.9023 16.2109 15.0781 16.0449 15.2832 16.0449H18.6719C18.8867 16.0449 19.0527 16.2207 19.0527 16.4258V25.2734C19.0527 25.4785 18.877 25.6543 18.6719 25.6543ZM15.6641 24.8828H18.2812V16.8066H15.6641V24.8828Z" fill="black"/>
<path d="M18.3789 29.3262H0.380859C0.166016 29.3262 0 29.1504 0 28.9453C0 28.7305 0.175781 28.5645 0.380859 28.5645H18.3789C18.5938 28.5645 18.7598 28.7402 18.7598 28.9453C18.7598 29.1504 18.5938 29.3262 18.3789 29.3262Z" fill="black"/>
<path d="M29.5997 21.6212C29.5801 21.6212 29.5606 21.6212 29.5411 21.6212C29.336 21.5919 29.1895 21.3868 29.2188 21.1817L29.6192 18.6817C29.6485 18.4766 29.8536 18.3301 30.0587 18.3594C30.2637 18.3887 30.4102 18.5938 30.3809 18.7989L29.9805 21.2989C29.9415 21.4942 29.7852 21.6212 29.5997 21.6212Z" fill="black"/>
<path d="M37.8906 21.6504C37.7051 21.6504 37.539 21.5137 37.5097 21.3281L37.0898 18.8086C37.0508 18.6035 37.1972 18.3984 37.4023 18.3691C37.6074 18.3301 37.8125 18.4765 37.8418 18.6816L38.2617 21.2012C38.3008 21.4062 38.1543 21.6113 37.9492 21.6406C37.9297 21.6504 37.9101 21.6504 37.8906 21.6504Z" fill="black"/>
</svg>
