<svg width="14" height="19" viewBox="0 0 14 19" fill="none" xmlns="http://www.w3.org/2000/svg">
<path d="M6.75 0.25C7.94531 0.25 9.07031 0.566406 10.125 1.16406C11.1445 1.79688 11.9531 2.60547 12.5859 3.625C13.1836 4.67969 13.5 5.80469 13.5 7C13.5 7.70312 13.3945 8.30078 13.2539 8.82812C13.0781 9.39062 12.7617 10.0586 12.3047 10.8672C11.9531 11.4297 11.2852 12.5547 10.2656 14.1719L8.19141 17.4414C7.98047 17.793 7.66406 18.0391 7.3125 18.1797C6.92578 18.3203 6.53906 18.3203 6.1875 18.1797C5.80078 18.0391 5.51953 17.793 5.30859 17.4414L3.23438 14.1719C2.17969 12.5547 1.51172 11.4648 1.19531 10.9023C0.703125 10.0586 0.386719 9.39062 0.246094 8.82812C0.0703125 8.30078 0 7.70312 0 7C0 5.80469 0.28125 4.67969 0.914062 3.625C1.51172 2.60547 2.32031 1.79688 3.375 1.16406C4.39453 0.566406 5.51953 0.25 6.75 0.25ZM6.75 16.5625L8.96484 13.0469C9.87891 11.5703 10.5117 10.5508 10.8281 10.0586C11.2148 9.35547 11.4609 8.82812 11.6016 8.40625C11.7422 8.01953 11.8125 7.5625 11.8125 7C11.8125 6.08594 11.5664 5.24219 11.1094 4.46875C10.6523 3.69531 10.0547 3.09766 9.28125 2.64062C8.50781 2.18359 7.66406 1.9375 6.75 1.9375C5.83594 1.9375 4.99219 2.18359 4.21875 2.64062C3.44531 3.09766 2.8125 3.69531 2.35547 4.46875C1.89844 5.24219 1.6875 6.08594 1.6875 7C1.6875 7.5625 1.72266 8.01953 1.86328 8.44141C2.00391 8.86328 2.28516 9.39062 2.70703 10.0938C2.98828 10.5859 3.58594 11.6055 4.53516 13.082C5.41406 14.4883 6.15234 15.6484 6.75 16.5625ZM3.9375 7C3.9375 7.77344 4.18359 8.44141 4.74609 9.00391C5.30859 9.56641 5.97656 9.8125 6.75 9.8125C7.52344 9.8125 8.15625 9.56641 8.71875 9.00391C9.28125 8.44141 9.5625 7.77344 9.5625 7C9.5625 6.22656 9.28125 5.59375 8.71875 5.03125C8.15625 4.46875 7.52344 4.1875 6.75 4.1875C5.97656 4.1875 5.30859 4.46875 4.74609 5.03125C4.18359 5.59375 3.9375 6.22656 3.9375 7Z" fill="#FFC221"/>
</svg>
