<svg width="25" height="25" viewBox="0 0 25 25" fill="none" xmlns="http://www.w3.org/2000/svg">
<path d="M19.7592 15.4868C19.2474 14.9539 18.6301 14.669 17.9758 14.669C17.3268 14.669 16.7042 14.9486 16.1713 15.4816L14.5039 17.1436C14.3667 17.0698 14.2295 17.0012 14.0976 16.9326C13.9077 16.8376 13.7283 16.7479 13.5753 16.6529C12.0134 15.661 10.5941 14.3682 9.23277 12.6956C8.57322 11.8619 8.13 11.1602 7.80814 10.4479C8.2408 10.0521 8.64181 9.64057 9.03227 9.24484C9.18001 9.0971 9.32775 8.94408 9.47549 8.79634C10.5835 7.68829 10.5835 6.25311 9.47549 5.14506L8.03502 3.7046C7.87145 3.54103 7.70261 3.37218 7.54432 3.20334C7.22773 2.8762 6.89532 2.53851 6.55235 2.22192C6.04054 1.71539 5.42847 1.44629 4.78475 1.44629C4.14102 1.44629 3.51841 1.71539 2.99076 2.22192C2.98549 2.2272 2.98549 2.2272 2.98021 2.23248L1.18623 4.04229C0.510845 4.71767 0.125666 5.54079 0.041243 6.49582C-0.0853912 8.03654 0.368381 9.47172 0.716625 10.4109C1.57141 12.7167 2.8483 14.8537 4.75309 17.1436C7.06416 19.9032 9.84484 22.0824 13.0212 23.6178C14.2348 24.1929 15.8547 24.8736 17.6645 24.9897C17.7753 24.9949 17.8914 25.0002 17.9969 25.0002C19.2158 25.0002 20.2394 24.5623 21.0414 23.6917C21.0467 23.6811 21.0572 23.6758 21.0625 23.6653C21.3369 23.3329 21.6535 23.0321 21.9859 22.7103C22.2128 22.4939 22.4449 22.267 22.6718 22.0296C23.1942 21.4861 23.4686 20.853 23.4686 20.204C23.4686 19.5497 23.1889 18.9218 22.656 18.3941L19.7592 15.4868ZM21.6482 21.0429C21.6429 21.0429 21.6429 21.0482 21.6482 21.0429C21.4424 21.2645 21.2314 21.465 21.0045 21.6866C20.6615 22.0138 20.3133 22.3567 19.9861 22.7419C19.4532 23.3118 18.8253 23.5809 18.0022 23.5809C17.923 23.5809 17.8386 23.5809 17.7595 23.5756C16.1924 23.4753 14.7361 22.8633 13.6439 22.3409C10.6574 20.8952 8.03502 18.8426 5.85586 16.2414C4.0566 14.0728 2.85358 12.0677 2.05684 9.91494C1.56613 8.60111 1.38673 7.57749 1.46588 6.6119C1.51864 5.99456 1.75608 5.48275 2.19402 5.04481L3.99328 3.24555C4.25183 3.00283 4.5262 2.87092 4.7953 2.87092C5.12772 2.87092 5.39681 3.07143 5.56566 3.24027C5.57093 3.24555 5.57621 3.25082 5.58149 3.2561C5.90335 3.55686 6.20938 3.86817 6.53124 4.20058C6.69481 4.36943 6.86366 4.53827 7.0325 4.71239L8.47297 6.15285C9.03227 6.71216 9.03227 7.22924 8.47297 7.78854C8.31995 7.94156 8.17221 8.09458 8.01919 8.24232C7.57597 8.69609 7.15386 9.1182 6.69481 9.52976C6.68426 9.54032 6.67371 9.54559 6.66843 9.55614C6.21466 10.0099 6.29908 10.4531 6.39406 10.7539C6.39933 10.7697 6.40461 10.7856 6.40989 10.8014C6.78451 11.7089 7.31215 12.5637 8.11417 13.5821L8.11945 13.5873C9.57574 15.3813 11.1112 16.7796 12.8049 17.8507C13.0212 17.9879 13.2429 18.0987 13.4539 18.2042C13.6439 18.2992 13.8233 18.3889 13.9763 18.4838C13.9974 18.4944 14.0185 18.5102 14.0396 18.5208C14.219 18.6105 14.3878 18.6527 14.562 18.6527C14.9999 18.6527 15.2743 18.3783 15.364 18.2886L17.1685 16.4841C17.3479 16.3047 17.6328 16.0884 17.9653 16.0884C18.2924 16.0884 18.5615 16.2941 18.7251 16.4735C18.7303 16.4788 18.7303 16.4788 18.7356 16.4841L21.6429 19.3914C22.1864 19.9296 22.1864 20.4836 21.6482 21.0429Z" fill="#FFC550"/>
<path d="M13.5111 5.94627C14.8936 6.17843 16.1493 6.83271 17.1519 7.83523C18.1544 8.83775 18.8034 10.0935 19.0408 11.476C19.0988 11.8242 19.3996 12.0669 19.7426 12.0669C19.7848 12.0669 19.8217 12.0616 19.8639 12.0564C20.2544 11.993 20.5129 11.6237 20.4496 11.2332C20.1647 9.56062 19.3732 8.03573 18.1649 6.82743C16.9566 5.61913 15.4317 4.82767 13.7591 4.54274C13.3687 4.47942 13.0046 4.73797 12.936 5.12315C12.8674 5.50832 13.1207 5.88295 13.5111 5.94627Z" fill="#FFC550"/>
<path d="M24.9695 11.028C24.4999 8.27374 23.2019 5.76744 21.2075 3.77295C19.213 1.77846 16.7067 0.480461 13.9524 0.0108597C13.5672 -0.0577338 13.2031 0.206087 13.1345 0.591266C13.0712 0.981721 13.3298 1.34579 13.7202 1.41439C16.179 1.83123 18.4215 2.99731 20.2049 4.77547C21.9884 6.5589 23.1492 8.80138 23.566 11.2602C23.6241 11.6084 23.9248 11.8512 24.2678 11.8512C24.31 11.8512 24.3469 11.8459 24.3891 11.8406C24.7743 11.7826 25.0381 11.4132 24.9695 11.028Z" fill="#FFC550"/>
</svg>
