<svg width="25" height="25" viewBox="0 0 25 25" fill="none" xmlns="http://www.w3.org/2000/svg">
<path d="M24.7487 5.78472L21.78 3.24306C21.5783 3.09916 21.3589 2.9883 21.1287 2.91389C20.8995 2.83145 20.6609 2.78562 20.42 2.77778H11.875L12.8762 9.72222H20.42C20.625 9.72222 20.8813 9.67083 21.1275 9.58611C21.3738 9.50139 21.6112 9.38472 21.7788 9.25833L24.7475 6.71389C24.9163 6.5875 25 6.41944 25 6.25C25 6.08056 24.9163 5.9125 24.7487 5.78472ZM10.625 0H9.375C9.20924 0 9.05027 0.0731644 8.93306 0.203398C8.81585 0.333632 8.75 0.510266 8.75 0.694444V5.55556H4.58C4.3725 5.55556 4.1175 5.60694 3.87125 5.69306C3.62375 5.77639 3.3875 5.89167 3.22 6.02083L0.25125 8.5625C0.0825 8.68889 0 8.85833 0 9.02778C0 9.19583 0.0825 9.36389 0.25125 9.49306L3.22 12.0375C3.3875 12.1639 3.62375 12.2806 3.87125 12.3639C4.1175 12.4486 4.3725 12.5 4.58 12.5H8.75V24.3056C8.75 24.4897 8.81585 24.6664 8.93306 24.7966C9.05027 24.9268 9.20924 25 9.375 25H10.625C10.7908 25 10.9497 24.9268 11.0669 24.7966C11.1842 24.6664 11.25 24.4897 11.25 24.3056V0.694444C11.25 0.510266 11.1842 0.333632 11.0669 0.203398C10.9497 0.0731644 10.7908 0 10.625 0Z" fill="#FFC550"/>
</svg>
