<svg width="20" height="20" viewBox="0 0 20 20" fill="none" xmlns="http://www.w3.org/2000/svg">
<g clip-path="url(#clip0_109_468)">
<path d="M9.99992 0.833496C8.18693 0.833496 6.41465 1.37111 4.9072 2.37836C3.39975 3.38561 2.22483 4.81724 1.53103 6.49224C0.837224 8.16723 0.655693 10.0103 1.00939 11.7885C1.36309 13.5667 2.23613 15.2 3.51811 16.482C4.80009 17.764 6.43344 18.637 8.21159 18.9907C9.98975 19.3444 11.8329 19.1629 13.5079 18.4691C15.1828 17.7753 16.6145 16.6004 17.6217 15.0929C18.629 13.5854 19.1666 11.8132 19.1666 10.0002C19.1637 7.5699 18.197 5.23998 16.4786 3.52152C14.7601 1.80306 12.4302 0.836363 9.99992 0.833496V0.833496ZM9.99992 17.5002C8.51656 17.5002 7.06651 17.0603 5.83315 16.2362C4.59978 15.4121 3.63848 14.2407 3.07083 12.8703C2.50317 11.4999 2.35464 9.99185 2.64403 8.53699C2.93342 7.08213 3.64773 5.74576 4.69662 4.69686C5.74552 3.64797 7.08189 2.93366 8.53675 2.64427C9.9916 2.35488 11.4996 2.50341 12.87 3.07107C14.2405 3.63873 15.4118 4.60002 16.2359 5.83339C17.0601 7.06676 17.4999 8.51681 17.4999 10.0002C17.4975 11.9885 16.7065 13.8948 15.3005 15.3008C13.8945 16.7068 11.9883 17.4977 9.99992 17.5002V17.5002Z" fill="#FFC221"/>
<path d="M10.8334 9.65483V4.99984C10.8334 4.77882 10.7456 4.56686 10.5893 4.41058C10.4331 4.2543 10.2211 4.1665 10.0001 4.1665C9.77907 4.1665 9.56711 4.2543 9.41083 4.41058C9.25455 4.56686 9.16675 4.77882 9.16675 4.99984V9.99983C9.1668 10.2208 9.25462 10.4328 9.41092 10.589L11.9109 13.089C12.0681 13.2408 12.2786 13.3248 12.4971 13.3229C12.7156 13.321 12.9246 13.2334 13.0791 13.0788C13.2336 12.9243 13.3213 12.7153 13.3232 12.4968C13.3251 12.2783 13.2411 12.0678 13.0893 11.9107L10.8334 9.65483Z" fill="#FFC221"/>
</g>
<defs>
<clipPath id="clip0_109_468">
<rect width="20" height="20" fill="white"/>
</clipPath>
</defs>
</svg>
